<svg xmlns="http://www.w3.org/2000/svg" viewBox="0 0 174.759 173.213" height="654.663" width="660.508"><g fill-rule="evenodd" transform="rotate(90 88.676 86.492) scale(.28222)"><path d="M110.975 108.183c36.514-7.032 63.431-30.078 103.012-30.354 29.614.829 49.228 18.231 66.01 32.48 14.917 12.632 33.155 27.447 59.264 28.02 10.041-.211 19.895-1.897 29.246-4.28-17.265 5.45-38.666 7.495-55.401.064-33.604-13.167-46.971-41.914-83.789-52.14-24.323-6.32-49.802 2.589-70.323 10.901-15.512 6.263-31.395 12.902-49.381 15.567l1.362-.258zM112.588 113.641c-7.032 36.515-30.079 63.432-30.354 103.012.829 29.615 18.23 49.228 32.479 66.01 12.633 14.918 27.448 33.155 28.021 59.264-.212 10.042-1.898 19.895-4.281 29.247 5.451-17.266 7.496-38.666.064-55.402-13.166-33.604-41.913-46.97-52.138-83.788-6.321-24.323 2.587-49.802 10.9-70.323 6.263-15.513 12.902-31.395 15.566-49.382l-.257 1.362z"/><path d="M114.05 114.347C94.59 14.502 58.781 44.034 22.976 32.38c15.692 34.84-5.096 79.737 91.072 81.966z" fill="#fff" stroke="#000" stroke-linecap="round" stroke-linejoin="round"/><path d="M113.765 114.062l.557-.504A436.388 436.388 0 0082.52 82.382a436.002 436.002 0 00-32.79-26.284A435.627 435.627 0 0182.018 82.94a435.266 435.266 0 0131.19 31.626z"/><path d="M113.765 114.062l.692-.292a104.552 104.552 0 00-14.437-23.752 104.25 104.25 0 00-24.866-22.346 103.874 103.874 0 0124.275 22.81 103.426 103.426 0 0113.644 23.872z"/><path d="M113.765 114.062l.723-.205a123.552 123.552 0 00-10.829-25.495 123.082 123.082 0 00-9.721-14.429c3.37 4.715 6.4 9.662 9.062 14.79a122.425 122.425 0 0110.042 25.543z"/><path d="M113.748 113.971l.332-.674A128.676 128.676 0 0187.2 96.055a129.048 129.048 0 01-21.615-23.057 129.424 129.424 0 0021.127 23.628 129.804 129.804 0 0026.705 18.02z"/><path d="M113.748 113.971l.208-.722a106.182 106.182 0 01-29.26-13.048 106.481 106.481 0 01-19.87-16.388 106.857 106.857 0 0019.457 17.015 107.31 107.31 0 0029.258 13.865z"/><path d="M113.748 113.971l.056-.749a84.076 84.076 0 01-30.29-7.733 84.255 84.255 0 01-13.944-8.015 84.631 84.631 0 0013.618 8.692 85.203 85.203 0 0030.505 8.555z"/><path d="M114.338 116.54c-100.97-12.348-83.95 30.834-106.096 61.286 37.983-4.158 74.259 29.486 106.096-61.286z" fill="#fff" stroke="#000" stroke-linecap="round" stroke-linejoin="round"/><path d="M113.98 116.723l-.308-.686a436.389 436.389 0 00-39.477 20.611 436.004 436.004 0 00-35.13 23.064 435.628 435.628 0 0135.506-22.413 435.264 435.264 0 0139.716-19.89z"/><path d="M113.98 116.723l-.064-.749a104.553 104.553 0 00-27.05 6.39 104.25 104.25 0 00-28.937 16.744 103.874 103.874 0 0129.195-16.038 103.426 103.426 0 0126.92-5.599z"/><path d="M113.98 116.723l.029-.751c-9.264-.23-18.54.585-27.594 2.42a123.081 123.081 0 00-16.727 4.787 122.706 122.706 0 0116.866-4.049 122.426 122.426 0 0127.397-1.657z"/><path d="M113.888 116.71l-.538-.524a128.677 128.677 0 01-24.705 20.237 129.048 129.048 0 01-28.607 13.432 129.424 129.424 0 0029-12.792 129.804 129.804 0 0025.389-19.829z"/><path d="M113.888 116.71l-.622-.42a106.182 106.182 0 01-21.452 23.795 106.481 106.481 0 01-21.725 13.833 106.857 106.857 0 0022.194-13.246 107.31 107.31 0 0022.228-23.542z"/><path d="M113.888 116.71l-.695-.284a84.077 84.077 0 01-16.715 26.417 84.255 84.255 0 01-11.931 10.786 84.631 84.631 0 0012.474-10.266 85.204 85.204 0 0017.563-26.368z"/><path d="M115.865 118.332c-42.945 92.213 3.383 89.369 25.501 119.842 7.783-37.41 50.99-61.513-25.5-119.842z" fill="#fff" stroke="#000" stroke-linecap="round" stroke-linejoin="round"/><path d="M115.928 118.73l-.747.08a436.391 436.391 0 007.403 43.914 436.003 436.003 0 0011.08 40.538 435.63 435.63 0 01-10.345-40.694 435.263 435.263 0 01-6.644-43.92z"/><path d="M115.928 118.73l-.732-.172a104.553 104.553 0 00-2.28 27.702 104.25 104.25 0 006.982 32.694 103.875 103.875 0 01-6.232-32.722 103.426 103.426 0 012.994-27.332z"/><path d="M115.928 118.73l-.705-.26a123.552 123.552 0 00-6.225 26.99 123.08 123.08 0 00-.617 17.388c.046-5.795.502-11.578 1.362-17.292a122.427 122.427 0 016.89-26.567z"/><path d="M115.888 118.812l-.665.35a128.676 128.676 0 0111.612 29.75 129.047 129.047 0 013.935 31.357 129.423 129.423 0 00-3.204-31.533 129.804 129.804 0 00-11.013-30.274z"/><path d="M115.888 118.812l-.592.463a106.182 106.182 0 0116.002 27.754 106.481 106.481 0 016.442 24.937 106.857 106.857 0 00-5.739-25.201 107.31 107.31 0 00-15.52-28.415z"/><path d="M115.888 118.812l-.485.573a84.076 84.076 0 0119.96 24.06 84.255 84.255 0 016.57 14.681 84.632 84.632 0 00-5.909-15.036 85.204 85.204 0 00-19.65-24.851z"/><path d="M116.26 115.992c74.428 69.338 86.04 24.399 121.856 12.78-33.173-18.961-42.745-67.503-121.857-12.78z" fill="#fff" stroke="#000" stroke-linecap="round" stroke-linejoin="round"/><path d="M116.657 116.055l-.154.735a436.39 436.39 0 0044.052 6.53 436.002 436.002 0 0041.977 1.99 435.63 435.63 0 01-41.898-2.738 435.265 435.265 0 01-43.823-7.253z"/><path d="M116.657 116.055l-.389.643a104.552 104.552 0 0025.641 10.73 104.25 104.25 0 0033.252 3.462 103.875 103.875 0 01-33.047-4.185 103.426 103.426 0 01-25.069-11.293z"/><path d="M116.657 116.055l-.465.59a123.552 123.552 0 0023.746 14.261 123.081 123.081 0 0016.346 5.96 122.707 122.707 0 01-16.024-6.64 122.427 122.427 0 01-23.139-14.762z"/><path d="M116.723 116.118l.128.74a128.677 128.677 0 0131.882-1.85c10.522.7 20.973 2.7 31.038 5.949a129.423 129.423 0 00-30.98-6.698 129.804 129.804 0 00-32.196 1.12z"/><path d="M116.723 116.118l.257.706a106.182 106.182 0 0131.341-6.642 106.48 106.48 0 0125.707 1.58 106.857 106.857 0 00-25.741-2.33 107.309 107.309 0 00-31.82 5.98z"/><path d="M116.723 116.118l.396.64a84.077 84.077 0 0129.05-11.548 84.256 84.256 0 0115.992-1.713 84.631 84.631 0 00-16.126.973 85.204 85.204 0 00-29.707 11.01z"/><path d="M115.874 113.895c88.944-49.36 49.793-74.29 49.81-111.943-28.284 25.69-77.408 19.793-49.81 111.943z" fill="#fff" stroke="#000" stroke-linecap="round" stroke-linejoin="round"/><path d="M116.056 113.537l.652.373a436.39 436.39 0 0019.823-39.879 436.003 436.003 0 0014.864-39.307 435.626 435.626 0 01-15.55 39.002 435.26 435.26 0 01-20.44 39.437z"/><path d="M116.056 113.537l.492.568a104.553 104.553 0 0018.128-21.07 104.25 104.25 0 0013.568-30.555 103.874 103.874 0 01-14.192 30.136 103.426 103.426 0 01-18.487 20.352z"/><path d="M116.056 113.537l.418.624a123.552 123.552 0 0020.901-18.177 123.082 123.082 0 0010.72-13.705 122.705 122.705 0 01-11.266 13.19 122.425 122.425 0 01-21.19 17.443z"/><path d="M116.138 113.493l.743.107a128.677 128.677 0 018.092-30.893 129.048 129.048 0 0115.249-27.681 129.424 129.424 0 00-15.943 27.394 129.804 129.804 0 00-8.885 30.966z"/><path d="M116.138 113.493l.75-.026a106.182 106.182 0 013.368-31.86 106.482 106.482 0 019.446-23.96 106.857 106.857 0 00-10.17 23.76 107.31 107.31 0 00-4.145 32.112z"/><path d="M116.138 113.493l.73-.179a84.076 84.076 0 01-2.006-31.197 84.255 84.255 0 013.313-15.738 84.632 84.632 0 00-4.057 15.637 85.203 85.203 0 001.29 31.655z"/><circle r="5.111" cy="115.978" cx="115.297" fill="#fff" stroke="#000" stroke-width=".843" stroke-linecap="round" stroke-linejoin="round"/><path d="M210.988 65.15c112.7-21.717 298.248 96.292 410 0-93.265 21.982-317.211-126.703-410 0z" fill="#fff" stroke="#000" stroke-linecap="round" stroke-linejoin="round"/><path d="M210.98 65.166c2.765-.65 5.301-1.498 7.966-2.01 51.93-27.23 88.527-25.059 122.185-17.4 35.293 8.03 67.07 22.035 108.876 14.167-41.779 7.066-73.142-7.645-108.329-16.457-33.833-8.473-71.448-11.548-124.846 15.596-2 1.896-3.83 4.11-5.853 6.104z"/><path d="M76.655 210.178c-21.716 112.699 96.293 298.248 0 410 21.982-93.266-126.702-317.212 0-410z" fill="#fff" stroke="#000" stroke-linecap="round" stroke-linejoin="round"/><path d="M76.672 210.168c-.65 2.766-1.498 5.303-2.01 7.967-27.231 51.93-25.06 88.528-17.4 122.185 8.03 35.293 22.035 67.07 14.166 108.877 7.067-41.78-7.644-73.143-16.456-108.33-8.474-33.833-11.548-71.448 15.595-124.846 1.897-1.999 4.11-3.83 6.105-5.853z"/><path d="M209.9 64.192c-.826-32.4-13.64-25.02-24.273-30.577 3.085 11.777-5.825 24.782 24.272 30.577z" fill="#fff" stroke="#000" stroke-linecap="round" stroke-linejoin="round"/><path d="M209.825 64.087l.201-.129a139.044 139.044 0 00-8.34-11.48 138.92 138.92 0 00-8.91-9.994 138.8 138.8 0 018.723 10.144 138.685 138.685 0 018.124 11.588z"/><path d="M209.825 64.087l.233-.055a33.313 33.313 0 00-3.278-8.227 33.216 33.216 0 00-6.629-8.338 33.097 33.097 0 016.419 8.453 32.954 32.954 0 013.022 8.222z"/><path d="M209.825 64.087l.238-.026a39.366 39.366 0 00-2.052-8.583 39.216 39.216 0 00-2.29-5.049 39.098 39.098 0 012.064 5.127 39.008 39.008 0 011.802 8.557z"/><path d="M209.824 64.058l.14-.194a41 41 0 01-13.101-15.23 41.238 41.238 0 0012.821 15.618z"/><path d="M209.824 64.058l.104-.216a33.832 33.832 0 01-8.502-5.65 33.927 33.927 0 01-5.375-6.2 34.047 34.047 0 005.212 6.376 34.191 34.191 0 008.458 5.906z"/><path d="M209.824 64.058l.058-.232a26.789 26.789 0 01-9.108-4.035 26.845 26.845 0 01-3.956-3.256 26.966 26.966 0 003.818 3.452 27.148 27.148 0 009.131 4.303z"/><path d="M209.874 64.896c-31.07-9.228-28.01 5.24-36.581 13.636 12.154.705 21.77 13.197 36.58-13.636z" fill="#fff" stroke="#000" stroke-linecap="round" stroke-linejoin="round"/><path d="M209.751 64.935l-.06-.232a139.044 139.044 0 00-13.495 4.385 138.921 138.921 0 00-12.26 5.385c4.03-1.918 8.151-3.641 12.344-5.161a138.686 138.686 0 0113.532-4.146z"/><path d="M209.751 64.935l.02-.239a33.313 33.313 0 00-8.838.575A33.216 33.216 0 00190.955 69a33.097 33.097 0 0110.022-3.493c2.892-.5 5.845-.612 8.755-.333z"/><path d="M209.751 64.935l.05-.235a39.366 39.366 0 00-8.799-.7c-1.85.075-3.693.282-5.509.617a39.097 39.097 0 015.514-.379 39.007 39.007 0 018.695.931z"/><path d="M209.723 64.926l-.141-.193a41 41 0 01-18.534 7.754 41.237 41.237 0 0018.817-7.368z"/><path d="M209.723 64.926l-.173-.165a33.832 33.832 0 01-8 6.34 33.928 33.928 0 01-7.56 3.195 34.047 34.047 0 007.676-2.986 34.191 34.191 0 008.23-6.219z"/><path d="M209.723 64.926l-.203-.126a26.789 26.789 0 01-6.651 7.414 26.846 26.846 0 01-4.32 2.757 26.965 26.965 0 004.463-2.565 27.148 27.148 0 006.915-7.354z"/><path d="M210.258 65.54c-18.377 26.697-3.67 28.258 1.664 39.004 4.427-11.341 19.28-16.626-1.664-39.004z" fill="#fff" stroke="#000" stroke-linecap="round" stroke-linejoin="round"/><path d="M210.257 65.668l-.239-.014a139.043 139.043 0 000 14.19c.23 4.46.675 8.909 1.334 13.323a138.802 138.802 0 01-1.095-13.334c-.161-4.719-.081-9.444.24-14.15z"/><path d="M210.257 65.668l-.22-.092a33.313 33.313 0 00-2.185 8.583 33.217 33.217 0 00.462 10.642c-.646-3.501-.72-7.1-.224-10.612a32.954 32.954 0 012.388-8.428z"/><path d="M210.257 65.668l-.208-.119a39.367 39.367 0 00-3.385 8.15c-.5 1.784-.873 3.6-1.115 5.431a39.098 39.098 0 011.344-5.36 39.008 39.008 0 013.572-7.983z"/><path d="M210.24 65.692l-.227.075a41 41 0 011.647 20.023 41.237 41.237 0 00-1.192-20.173z"/><path d="M210.24 65.692l-.21.114a33.832 33.832 0 013.557 9.568c.563 2.679.8 5.43.703 8.176.178-2.741.02-5.509-.468-8.222-.62-3.39-1.76-6.69-3.371-9.75z"/><path d="M210.24 65.692l-.183.155a26.789 26.789 0 014.997 8.617 26.846 26.846 0 011.287 4.96 26.965 26.965 0 00-1.06-5.037 27.148 27.148 0 00-4.858-8.85z"/><path d="M210.506 64.826c19.712 25.728 25.74 12.224 37.61 10.47-9.419-7.714-9.855-23.473-37.61-10.47z" fill="#fff" stroke="#000" stroke-linecap="round" stroke-linejoin="round"/><path d="M210.628 64.867l-.088.223a139.044 139.044 0 0013.495 4.385 138.92 138.92 0 0013.084 2.848 138.801 138.801 0 01-13.02-3.08 138.685 138.685 0 01-13.384-4.6z"/><path d="M210.628 64.867l-.156.181a33.313 33.313 0 007.487 4.73 33.216 33.216 0 0010.264 2.849 33.097 33.097 0 01-10.16-3.066 32.954 32.954 0 01-7.28-4.876z"/><path d="M210.628 64.867l-.177.16a39.367 39.367 0 006.705 5.739 39.216 39.216 0 004.82 2.738 39.097 39.097 0 01-4.683-2.934 39.007 39.007 0 01-6.488-5.864z"/><path d="M210.645 64.89l.001.24a41 41 0 0119.552 4.62 41.237 41.237 0 00-19.554-5.1z"/><path d="M210.645 64.89l.044.236a33.832 33.832 0 0110.198-.427c2.722.292 5.413.917 7.994 1.858a34.047 34.047 0 00-7.965-2.096 34.191 34.191 0 00-10.314.194z"/><path d="M210.645 64.89l.09.222a26.789 26.789 0 019.74-2.09c1.706-.06 3.421.043 5.115.31a26.965 26.965 0 00-5.118-.549c-3.377 0-6.76.642-9.917 1.886z"/><path d="M210.496 64.147c30.56-10.797 19.58-20.704 21.58-32.533-10.247 6.573-25.37 2.118-21.58 32.533z" fill="#fff" stroke="#000" stroke-linecap="round" stroke-linejoin="round"/><path d="M210.573 64.044l.185.152a139.045 139.045 0 008.34-11.48 138.92 138.92 0 006.753-11.562 138.8 138.8 0 01-6.952 11.43 138.686 138.686 0 01-8.511 11.308z"/><path d="M210.573 64.044l.124.204a33.313 33.313 0 006.812-5.66 33.217 33.217 0 005.881-8.88 33.097 33.097 0 01-6.055 8.716 32.954 32.954 0 01-6.887 5.415z"/><path d="M210.573 64.044l.098.218a39.367 39.367 0 007.53-4.604 39.217 39.217 0 004.093-3.738 39.097 39.097 0 01-4.238 3.547 39.007 39.007 0 01-7.582 4.358z"/><path d="M210.6 64.034l.228.073a40.999 40.999 0 0110.437-17.167 41.237 41.237 0 00-10.893 17.021z"/><path d="M210.6 64.034l.238.032a33.832 33.832 0 012.745-9.832 33.927 33.927 0 014.237-7.028 34.047 34.047 0 00-4.454 6.927 34.19 34.19 0 00-3.003 9.87z"/><path d="M210.6 64.034l.24-.017a26.79 26.79 0 011.022-9.908 26.846 26.846 0 011.874-4.77 26.966 26.966 0 00-2.103 4.699 27.148 27.148 0 00-1.271 10.014z"/><circle r="1.629" cy="28.921" cx="218.048" transform="rotate(9.57)" fill="#fff" stroke="#000" stroke-width=".269" stroke-linecap="round" stroke-linejoin="round"/><path d="M73.127 211.793c-6.2-31.813-17.61-22.403-29.017-26.116 5 11.1-1.624 25.406 29.017 26.116z" fill="#fff" stroke="#000" stroke-linecap="round" stroke-linejoin="round"/><path d="M73.037 211.702l.177-.16a139.042 139.042 0 00-10.133-9.934 138.92 138.92 0 00-10.448-8.374c3.566 2.684 7 5.54 10.288 8.552a138.686 138.686 0 019.938 10.077z"/><path d="M73.037 211.702l.22-.093a33.313 33.313 0 00-4.6-7.568 33.217 33.217 0 00-7.923-7.12 33.097 33.097 0 017.735 7.268 32.954 32.954 0 014.347 7.606z"/><path d="M73.037 211.702l.23-.065a39.367 39.367 0 00-3.45-8.123 39.216 39.216 0 00-3.098-4.598 39.096 39.096 0 012.888 4.713 39.007 39.007 0 013.2 8.138z"/><path d="M73.031 211.673l.106-.214a41 41 0 01-15.451-12.84 41.238 41.238 0 0015.24 13.27z"/><path d="M73.031 211.673l.066-.23a33.832 33.832 0 01-9.322-4.157 33.927 33.927 0 01-6.331-5.222 34.047 34.047 0 006.199 5.422 34.191 34.191 0 009.322 4.417z"/><path d="M73.031 211.673l.018-.238a26.789 26.789 0 01-9.651-2.464 26.846 26.846 0 01-4.443-2.554 26.965 26.965 0 004.339 2.77 27.148 27.148 0 009.72 2.725z"/><path d="M73.22 212.492c-32.172-3.934-26.75 9.824-33.805 19.527 12.102-1.325 23.66 9.395 33.804-19.527z" fill="#fff" stroke="#000" stroke-linecap="round" stroke-linejoin="round"/><path d="M73.105 212.55l-.098-.218a139.04 139.04 0 00-12.578 6.567 138.917 138.917 0 00-11.194 7.348 138.802 138.802 0 0111.313-7.14 138.686 138.686 0 0112.655-6.339z"/><path d="M73.105 212.55l-.02-.238c-2.952.291-5.86.98-8.62 2.036a33.216 33.216 0 00-9.22 5.335 33.096 33.096 0 019.303-5.11 32.953 32.953 0 018.577-1.784z"/><path d="M73.105 212.55l.01-.24a39.368 39.368 0 00-8.793.772 39.218 39.218 0 00-5.33 1.525 39.098 39.098 0 015.375-1.29 39.007 39.007 0 018.729-.528z"/><path d="M73.076 212.546l-.172-.167a41 41 0 01-16.986 10.728 41.238 41.238 0 0017.33-10.394z"/><path d="M73.076 212.546l-.199-.134a33.832 33.832 0 01-6.834 7.582 33.928 33.928 0 01-6.923 4.407 34.047 34.047 0 007.072-4.22 34.191 34.191 0 007.082-7.501z"/><path d="M73.076 212.546l-.222-.09a26.789 26.789 0 01-5.325 8.417 26.845 26.845 0 01-3.802 3.436 26.966 26.966 0 003.975-3.27 27.148 27.148 0 005.595-8.402z"/><path d="M73.706 213.063c-13.683 29.38 1.078 28.475 8.125 38.184 2.48-11.92 16.247-19.6-8.125-38.184z" fill="#fff" stroke="#000" stroke-linecap="round" stroke-linejoin="round"/><path d="M73.726 213.19l-.238.025a139.044 139.044 0 002.359 13.992 138.92 138.92 0 003.53 12.916 138.8 138.8 0 01-3.296-12.966c-.944-4.626-1.65-9.299-2.117-13.993z"/><path d="M73.726 213.19l-.233-.055a33.313 33.313 0 00-.727 8.826c.175 3.569.931 7.101 2.225 10.418a33.097 33.097 0 01-1.986-10.427c-.071-2.933.251-5.87.954-8.708z"/><path d="M73.726 213.19l-.225-.083a39.367 39.367 0 00-1.983 8.6 39.217 39.217 0 00-.197 5.54c.015-1.847.16-3.69.434-5.51a39.008 39.008 0 012.195-8.465z"/><path d="M73.713 213.216l-.212.111a41 41 0 014.954 19.47 41.238 41.238 0 00-4.53-19.693z"/><path d="M73.713 213.216l-.189.147a33.832 33.832 0 015.099 8.843c1 2.548 1.692 5.223 2.053 7.946a34.047 34.047 0 00-1.829-8.03 34.191 34.191 0 00-4.945-9.054z"/><path d="M73.713 213.216l-.155.182a26.789 26.789 0 016.36 7.667 26.845 26.845 0 012.093 4.677 26.966 26.966 0 00-1.882-4.79 27.148 27.148 0 00-6.261-7.919z"/><path d="M73.831 212.317c23.715 22.093 27.415 7.774 38.827 4.072-10.57-6.041-13.62-21.508-38.827-4.072z" fill="#fff" stroke="#000" stroke-linecap="round" stroke-linejoin="round"/><path d="M73.958 212.337l-.05.235c4.642.932 9.329 1.626 14.037 2.08 4.447.426 8.912.638 13.375.634-4.463-.076-8.92-.367-13.35-.872a138.685 138.685 0 01-13.963-2.311z"/><path d="M73.958 212.337l-.124.205a33.313 33.313 0 008.17 3.419 33.216 33.216 0 0010.595 1.103 33.097 33.097 0 01-10.53-1.333 32.954 32.954 0 01-7.987-3.599z"/><path d="M73.958 212.337l-.148.188a39.367 39.367 0 007.566 4.544 39.216 39.216 0 005.208 1.899 39.096 39.096 0 01-5.106-2.115 39.006 39.006 0 01-7.372-4.704z"/><path d="M73.98 212.358l.04.235a40.999 40.999 0 0120.048 1.306 41.238 41.238 0 00-20.13-1.777z"/><path d="M73.98 212.358l.081.224a33.832 33.832 0 019.986-2.116c2.732-.164 5.49.004 8.19.503a34.047 34.047 0 00-8.2-.742c-3.445.117-6.877.76-10.14 1.906z"/><path d="M73.98 212.358l.125.203a26.789 26.789 0 019.256-3.68 26.846 26.846 0 015.096-.545 26.969 26.969 0 00-5.138.31 27.148 27.148 0 00-9.466 3.508z"/><path d="M73.708 211.65c28.34-15.728 15.866-23.671 15.871-35.669-9.012 8.186-24.664 6.307-15.87 35.668z" fill="#fff" stroke="#000" stroke-linecap="round" stroke-linejoin="round"/><path d="M73.767 211.535l.207.119c2.321-4.126 4.43-8.369 6.316-12.706 1.78-4.098 3.36-8.279 4.736-12.525a138.8 138.8 0 01-4.954 12.427 138.685 138.685 0 01-6.513 12.566z"/><path d="M73.767 211.535l.156.18a33.313 33.313 0 005.776-6.713 33.216 33.216 0 004.324-9.735 33.097 33.097 0 01-4.523 9.602 32.954 32.954 0 01-5.89 6.485z"/><path d="M73.767 211.535l.133.199a39.367 39.367 0 006.66-5.792 39.216 39.216 0 003.415-4.366 39.098 39.098 0 01-3.59 4.202 39.008 39.008 0 01-6.751 5.558z"/><path d="M73.793 211.521l.236.034a41 41 0 017.437-18.663 41.237 41.237 0 00-7.91 18.595z"/><path d="M73.793 211.521l.239-.008a33.832 33.832 0 011.073-10.151c.688-2.65 1.7-5.22 3.01-7.635a34.047 34.047 0 00-3.24 7.571 34.191 34.191 0 00-1.322 10.232z"/><path d="M73.793 211.521l.232-.057a26.789 26.789 0 01-.639-9.94c.19-1.696.544-3.378 1.056-5.015a26.965 26.965 0 00-1.293 4.983 27.148 27.148 0 00.411 10.086z"/><circle r="1.629" cy="212.313" cx="73.525" fill="#fff" stroke="#000" stroke-width=".269" stroke-linecap="round" stroke-linejoin="round"/></g></svg>