<?xml version="1.0" encoding="UTF-8" standalone="no"?>
<svg
   xmlns:dc="http://purl.org/dc/elements/1.1/"
   xmlns:cc="http://creativecommons.org/ns#"
   xmlns:rdf="http://www.w3.org/1999/02/22-rdf-syntax-ns#"
   xmlns:svg="http://www.w3.org/2000/svg"
   xmlns="http://www.w3.org/2000/svg"
   id="svg4449"
   version="1.1"
   viewBox="0 0 174.75934 173.21286"
   height="173.21286mm"
   width="174.75934mm">
  <defs
     id="defs4443" />
  <metadata
     id="metadata4446">
    <rdf:RDF>
      <cc:Work
         rdf:about="">
        <dc:format>image/svg+xml</dc:format>
        <dc:type
           rdf:resource="http://purl.org/dc/dcmitype/StillImage" />
        <dc:title></dc:title>
      </cc:Work>
    </rdf:RDF>
  </metadata>
  <g
     transform="translate(-18.453688,11.85643)"
     id="layer1">
    <g
       transform="matrix(0,0.28222222,-0.28222222,0,193.62271,-14.041396)"
       id="layer1-3">
      <g
         id="g5804">
        <path
           style="fill:#000000;fill-rule:evenodd;stroke:none;stroke-width:1px;stroke-linecap:butt;stroke-linejoin:miter;stroke-opacity:1"
           d="m 110.97482,108.18285 c 36.51454,-7.03173 63.43145,-30.078198 103.0118,-30.353518 29.61453,0.82868 49.22838,18.230628 66.00977,32.478778 14.91782,12.63328 33.15516,27.44816 59.26427,28.02122 10.04171,-0.21174 19.89522,-1.8976 29.24659,-4.28125 -17.26543,5.4512 -38.66584,7.49639 -55.40136,0.0645 -33.60437,-13.16662 -46.97097,-41.913638 -83.78878,-52.138678 -24.32267,-6.3208 -49.80183,2.58791 -70.32272,10.9004 -15.51276,6.262768 -31.39496,12.902188 -49.38136,15.566398 l 1.36179,-0.25781 z"
           id="path5802" />
        <path
           id="path5158"
           d="m 112.58753,113.64122 c -7.03173,36.51454 -30.078205,63.43145 -30.353525,103.0118 0.82868,29.61453 18.230635,49.22838 32.478785,66.00977 12.63328,14.91782 27.44816,33.15516 28.02122,59.26427 -0.21174,10.04171 -1.8976,19.89522 -4.28125,29.24659 5.4512,-17.26543 7.49639,-38.66584 0.0645,-55.40136 -13.16662,-33.60437 -41.913643,-46.97097 -52.138685,-83.78878 -6.3208,-24.32267 2.58791,-49.80183 10.900402,-70.32272 6.262773,-15.51276 12.902193,-31.39496 15.566403,-49.38136 l -0.25781,1.36179 z"
           style="fill:#000000;fill-rule:evenodd;stroke:none;stroke-width:1px;stroke-linecap:butt;stroke-linejoin:miter;stroke-opacity:1" />
        <path
           id="path4153"
           d="M 114.0494,114.34653 C 94.590903,14.502455 58.78245,44.033666 22.977078,32.38143 c 15.692367,34.838679 -5.095764,79.7361 91.072322,81.9651 z"
           style="fill:#ffffff;fill-opacity:1;fill-rule:evenodd;stroke:#000000;stroke-width:1;stroke-linecap:round;stroke-linejoin:round;stroke-opacity:1" />
        <path
           id="path4725"
           d="m 113.7648,114.06192 0.55691,-0.50429 C 104.25662,102.62881 93.637411,92.219103 82.520255,82.381736 72.016382,73.096346 61.068968,64.32188 49.729575,56.098176 c 11.190563,8.425119 21.969693,17.386623 32.28807,26.841994 10.930614,10.006406 21.345125,20.56706 31.190245,31.62604 z"
           style="fill:#000000;fill-opacity:1;fill-rule:evenodd;stroke:none;stroke-width:1;stroke-linecap:round;stroke-linejoin:round;stroke-opacity:1" />
        <path
           style="fill:#000000;fill-opacity:1;fill-rule:evenodd;stroke:none;stroke-width:1;stroke-linecap:round;stroke-linejoin:round;stroke-opacity:1"
           d="m 113.7648,114.06192 0.69221,-0.29207 C 110.72286,105.242 105.8507,97.232253 100.01979,90.018136 92.991731,81.281289 84.556064,73.706335 75.15394,67.671961 c 9.264724,6.243753 17.494262,13.982778 24.275217,22.810521 5.592743,7.316376 10.192133,15.369838 13.643433,23.871508 z"
           id="path4731" />
        <path
           id="path4737"
           d="m 113.7648,114.06192 0.72293,-0.20455 c -2.64327,-8.88181 -6.28523,-17.450916 -10.82874,-25.494961 -2.89929,-5.03862 -6.151267,-9.863956 -9.721395,-14.42924 3.369578,4.715276 6.399715,9.662129 9.062275,14.789834 4.29679,8.114867 7.67043,16.702047 10.042,25.543467 z"
           style="fill:#000000;fill-opacity:1;fill-rule:evenodd;stroke:none;stroke-width:1;stroke-linecap:round;stroke-linejoin:round;stroke-opacity:1" />
        <path
           id="path4743"
           d="m 113.74836,113.97128 0.33183,-0.67406 C 104.46437,108.70306 95.409919,102.89817 87.199737,96.05474 79.098138,89.303996 71.81884,81.542793 65.585382,72.998451 c 6.029339,8.68944 13.14061,16.646416 21.126585,23.627729 8.095011,7.07438 17.087153,13.14507 26.704563,18.01916 z"
           style="fill:#000000;fill-opacity:1;fill-rule:evenodd;stroke:none;stroke-width:1;stroke-linecap:round;stroke-linejoin:round;stroke-opacity:1" />
        <path
           style="fill:#000000;fill-opacity:1;fill-rule:evenodd;stroke:none;stroke-width:1;stroke-linecap:round;stroke-linejoin:round;stroke-opacity:1"
           d="m 113.74836,113.97128 0.20717,-0.72218 C 103.63571,110.419 93.730857,106.00622 84.696046,100.20096 77.454883,95.577972 70.764955,90.063589 64.82644,83.813295 c 5.754397,6.420055 12.301883,12.149318 19.456128,17.014965 8.960366,6.05613 18.861292,10.75233 29.258622,13.8652 z"
           id="path4749" />
        <path
           id="path4755"
           d="m 113.74836,113.97128 0.0557,-0.74924 c -10.43764,-0.65085 -20.773508,-3.28352 -30.290022,-7.73325 -4.87869,-2.21343 -9.555934,-4.89997 -13.944272,-8.014651 4.238631,3.315441 8.804819,6.231541 13.617954,8.691391 9.492216,4.71604 19.89751,7.64039 30.50488,8.55499 z"
           style="fill:#000000;fill-opacity:1;fill-rule:evenodd;stroke:none;stroke-width:1;stroke-linecap:round;stroke-linejoin:round;stroke-opacity:1" />
        <path
           style="fill:#ffffff;fill-opacity:1;fill-rule:evenodd;stroke:#000000;stroke-width:1;stroke-linecap:round;stroke-linejoin:round;stroke-opacity:1"
           d="M 114.33828,116.53987 C 13.367922,104.19248 30.388353,147.37399 8.2419489,177.82618 46.22471,173.6676 82.500808,207.31235 114.33828,116.53987 Z"
           id="path4776" />
        <path
           style="fill:#000000;fill-opacity:1;fill-rule:evenodd;stroke:none;stroke-width:1;stroke-linecap:round;stroke-linejoin:round;stroke-opacity:1"
           d="m 113.97966,116.72258 -0.30751,-0.68549 c -13.50421,6.19528 -26.685948,13.07798 -39.47723,20.61111 -12.076806,7.12044 -23.804755,14.82058 -35.130029,23.06372 11.47084,-8.03935 23.32467,-15.52165 35.505815,-22.41314 12.894404,-7.30349 26.156444,-13.94486 39.716464,-19.89071 z"
           id="path4778" />
        <path
           id="path4780"
           d="m 113.97966,116.72258 -0.0639,-0.74859 c -9.26438,0.91615 -18.387686,3.0747 -27.050569,6.39094 -10.481024,3.98425 -20.291997,9.66626 -28.936446,16.74348 8.801121,-6.88185 18.704438,-12.31711 29.19555,-16.03826 8.686539,-3.05813 17.767125,-4.94376 26.919205,-5.59898 z"
           style="fill:#000000;fill-opacity:1;fill-rule:evenodd;stroke:none;stroke-width:1;stroke-linecap:round;stroke-linejoin:round;stroke-opacity:1" />
        <path
           style="fill:#000000;fill-opacity:1;fill-rule:evenodd;stroke:none;stroke-width:1;stroke-linecap:round;stroke-linejoin:round;stroke-opacity:1"
           d="m 113.97966,116.72258 0.0289,-0.75075 c -9.26391,-0.23073 -18.539042,0.58498 -27.593405,2.42037 -5.687942,1.20036 -11.282025,2.80207 -16.727098,4.78671 5.525751,-1.74756 11.166852,-3.10073 16.866364,-4.04843 9.045479,-1.57886 18.254889,-2.13379 27.396439,-1.65715 z"
           id="path4782" />
        <path
           style="fill:#000000;fill-opacity:1;fill-rule:evenodd;stroke:none;stroke-width:1;stroke-linecap:round;stroke-linejoin:round;stroke-opacity:1"
           d="m 113.88838,116.71021 -0.53853,-0.52388 c -7.34076,7.72551 -15.659521,14.543 -24.705092,20.23661 -8.923871,5.61898 -18.55464,10.14366 -28.607036,13.43169 10.127316,-3.04906 19.892353,-7.35344 28.999778,-12.79121 9.229635,-5.51271 17.78193,-12.1888 25.38941,-19.82933 z"
           id="path4784" />
        <path
           id="path4786"
           d="m 113.88838,116.71021 -0.62282,-0.42019 c -5.88057,8.94018 -13.13815,16.99663 -21.451194,23.79533 -6.634367,5.45817 -13.946158,10.11663 -21.725643,13.83304 7.884042,-3.48885 15.356178,-7.94543 22.194465,-13.24596 8.528632,-6.65036 16.054542,-14.6155 22.228012,-23.54203 z"
           style="fill:#000000;fill-opacity:1;fill-rule:evenodd;stroke:none;stroke-width:1;stroke-linecap:round;stroke-linejoin:round;stroke-opacity:1" />
        <path
           style="fill:#000000;fill-opacity:1;fill-rule:evenodd;stroke:none;stroke-width:1;stroke-linecap:round;stroke-linejoin:round;stroke-opacity:1"
           d="m 113.88838,116.71021 -0.69535,-0.28453 c -3.84441,9.72566 -9.54219,18.74211 -16.714898,26.41781 -3.612694,3.95593 -7.613093,7.57407 -11.931396,10.78514 4.462979,-3.00665 8.647382,-6.44823 12.47418,-10.26566 7.418474,-7.5703 13.415104,-16.56265 17.562814,-26.36823 z"
           id="path4788" />
        <path
           id="path4792"
           d="m 115.86508,118.33154 c -42.944621,92.21297 3.38304,89.3694 25.50118,119.84212 7.78227,-37.40882 50.99026,-61.51264 -25.50118,-119.84212 z"
           style="fill:#ffffff;fill-opacity:1;fill-rule:evenodd;stroke:#000000;stroke-width:1;stroke-linecap:round;stroke-linejoin:round;stroke-opacity:1" />
        <path
           id="path4794"
           d="m 115.92803,118.72907 -0.74697,0.0806 c 1.71904,14.75771 4.19149,29.42116 7.4032,43.91426 3.04,13.68606 6.73914,27.21948 11.07913,40.53772 -4.10119,-13.39371 -7.55425,-26.97953 -10.34427,-40.69408 -2.96144,-14.52021 -5.17956,-29.18545 -6.64412,-43.91918 z"
           style="fill:#000000;fill-opacity:1;fill-rule:evenodd;stroke:none;stroke-width:1;stroke-linecap:round;stroke-linejoin:round;stroke-opacity:1" />
        <path
           style="fill:#000000;fill-opacity:1;fill-rule:evenodd;stroke:none;stroke-width:1;stroke-linecap:round;stroke-linejoin:round;stroke-opacity:1"
           d="m 115.92803,118.72907 -0.73169,-0.17058 c -1.99154,9.09405 -2.75789,18.43786 -2.28093,27.70153 0.55043,11.19924 2.92258,22.28587 6.98213,32.69421 -3.82533,-10.49697 -5.93427,-21.59517 -6.23137,-32.72271 -0.22416,-9.2064 0.78855,-18.42525 2.99355,-27.33187 z"
           id="path4796" />
        <path
           id="path4798"
           d="m 115.92803,118.72907 -0.70509,-0.25944 c -3.08214,8.73921 -5.17253,17.81245 -6.22492,26.99083 -0.61606,5.78049 -0.82142,11.59573 -0.61653,17.38759 0.0455,-5.79533 0.50178,-11.57848 1.36171,-17.29189 1.29363,-9.09066 3.61172,-18.02081 6.88992,-26.56765 z"
           style="fill:#000000;fill-opacity:1;fill-rule:evenodd;stroke:none;stroke-width:1;stroke-linecap:round;stroke-linejoin:round;stroke-opacity:1" />
        <path
           id="path4800"
           d="m 115.88805,118.81206 -0.66466,0.35028 c 5.07899,9.36879 8.99217,19.38713 11.61188,29.7494 2.58635,10.22347 3.9135,20.78108 3.93423,31.35753 0.22969,-10.57386 -0.84645,-21.19109 -3.20373,-31.53313 -2.39079,-10.48143 -6.09733,-20.67817 -11.01306,-30.27436 z"
           style="fill:#000000;fill-opacity:1;fill-rule:evenodd;stroke:none;stroke-width:1;stroke-linecap:round;stroke-linejoin:round;stroke-opacity:1" />
        <path
           style="fill:#000000;fill-opacity:1;fill-rule:evenodd;stroke:none;stroke-width:1;stroke-linecap:round;stroke-linejoin:round;stroke-opacity:1"
           d="m 115.88805,118.81206 -0.59209,0.46249 c 6.68542,8.35543 12.10485,17.74737 16.00193,27.75446 3.1409,7.99632 5.31189,16.38979 6.44242,24.93696 -0.88179,-8.57628 -2.81124,-17.05987 -5.7392,-25.20142 -3.68938,-10.16629 -8.93904,-19.78521 -15.52097,-28.41498 z"
           id="path4802" />
        <path
           id="path4804"
           d="m 115.88805,118.81206 -0.48548,0.57339 c 8.06168,6.66164 14.87612,14.86679 19.95966,24.06037 2.64592,4.65832 4.85078,9.58099 6.57026,14.68022 -1.48036,-5.17365 -3.46044,-10.21676 -5.90848,-15.03592 -4.90735,-9.39474 -11.60652,-17.87666 -19.65048,-24.85145 z"
           style="fill:#000000;fill-opacity:1;fill-rule:evenodd;stroke:none;stroke-width:1;stroke-linecap:round;stroke-linejoin:round;stroke-opacity:1" />
        <path
           style="fill:#ffffff;fill-opacity:1;fill-rule:evenodd;stroke:#000000;stroke-width:1;stroke-linecap:round;stroke-linejoin:round;stroke-opacity:1"
           d="m 116.25913,115.99181 c 74.42912,69.33813 86.04076,24.3992 121.85692,12.78019 C 204.943,109.81066 195.37091,61.268925 116.25913,115.99181 Z"
           id="path4808" />
        <path
           style="fill:#000000;fill-opacity:1;fill-rule:evenodd;stroke:none;stroke-width:1;stroke-linecap:round;stroke-linejoin:round;stroke-opacity:1"
           d="m 116.65666,116.05479 -0.15414,0.73533 c 14.56663,2.92548 29.27642,5.10529 44.05265,6.52938 13.95563,1.33802 27.96978,2.00198 41.97731,1.98997 -14.00552,-0.23842 -27.99346,-1.15261 -41.89893,-2.73717 -14.72467,-1.6705 -29.35758,-4.09275 -43.82275,-7.25284 z"
           id="path4810" />
        <path
           id="path4812"
           d="m 116.65666,116.05479 -0.38833,0.64316 c 8.03353,4.70429 16.68321,8.32053 25.64086,10.72954 10.82121,2.93727 22.09825,4.10718 33.25164,3.46266 -11.1653,0.39436 -22.37202,-1.02944 -33.04674,-4.18548 -8.82508,-2.63175 -17.27978,-6.44367 -25.0691,-11.29304 z"
           style="fill:#000000;fill-opacity:1;fill-rule:evenodd;stroke:none;stroke-width:1;stroke-linecap:round;stroke-linejoin:round;stroke-opacity:1" />
        <path
           style="fill:#000000;fill-opacity:1;fill-rule:evenodd;stroke:none;stroke-width:1;stroke-linecap:round;stroke-linejoin:round;stroke-opacity:1"
           d="m 116.65666,116.05479 -0.46462,0.59041 c 7.35904,5.63185 15.34224,10.42371 23.74619,14.26087 5.3072,2.37217 10.77436,4.36449 16.34606,5.95941 -5.49761,-1.83415 -10.85673,-4.05517 -16.02478,-6.63855 -8.24597,-4.03948 -16.02272,-9.00368 -23.13823,-14.76255 z"
           id="path4814" />
        <path
           style="fill:#000000;fill-opacity:1;fill-rule:evenodd;stroke:none;stroke-width:1;stroke-linecap:round;stroke-linejoin:round;stroke-opacity:1"
           d="m 116.72323,116.11845 0.12775,0.74037 c 10.47974,-1.93528 21.21698,-2.5611 31.88162,-1.85048 10.52232,0.69947 20.97332,2.69975 31.03853,5.94833 -9.98536,-3.48595 -20.41549,-5.74337 -30.97979,-6.69733 -10.70723,-0.96517 -21.55029,-0.59101 -32.19586,1.11874 z"
           id="path4816" />
        <path
           id="path4818"
           d="m 116.72323,116.11845 0.25689,0.70603 c 10.01239,-3.77625 20.61936,-6.02816 31.34092,-6.64214 8.57555,-0.51617 17.22909,0.0128 25.70728,1.57884 -8.42902,-1.81158 -17.09362,-2.59814 -25.74148,-2.32936 -10.8088,0.36725 -21.57918,2.38756 -31.8205,5.9806 z"
           style="fill:#000000;fill-opacity:1;fill-rule:evenodd;stroke:none;stroke-width:1;stroke-linecap:round;stroke-linejoin:round;stroke-opacity:1" />
        <path
           style="fill:#000000;fill-opacity:1;fill-rule:evenodd;stroke:none;stroke-width:1;stroke-linecap:round;stroke-linejoin:round;stroke-opacity:1"
           d="m 116.72323,116.11845 0.3953,0.63891 c 8.8268,-5.60855 18.73614,-9.55393 29.05065,-11.5477 5.24796,-1.07692 10.61104,-1.65268 15.99204,-1.71226 -5.37789,-0.19084 -10.78605,0.13393 -16.12582,0.97296 -10.45139,1.76403 -20.58833,5.51426 -29.70747,11.00918 z"
           id="path4820" />
        <path
           id="path4824"
           d="M 115.87369,113.89513 C 204.81803,64.535484 165.66676,39.605268 165.68423,1.9515962 137.39989,27.641668 88.276015,21.745047 115.87369,113.89513 Z"
           style="fill:#ffffff;fill-opacity:1;fill-rule:evenodd;stroke:#000000;stroke-width:1;stroke-linecap:round;stroke-linejoin:round;stroke-opacity:1" />
        <path
           id="path4826"
           d="m 116.05642,113.53651 0.65171,0.37382 c 7.28363,-12.94966 13.90234,-26.265906 19.82284,-39.878863 5.58505,-12.85912 10.54713,-25.982188 14.86427,-39.307856 -4.55469,13.246363 -9.74665,26.267182 -15.55069,39.002412 -6.13891,13.487781 -12.96442,26.655997 -20.43984,39.436667 z"
           style="fill:#000000;fill-opacity:1;fill-rule:evenodd;stroke:none;stroke-width:1;stroke-linecap:round;stroke-linejoin:round;stroke-opacity:1" />
        <path
           style="fill:#000000;fill-opacity:1;fill-rule:evenodd;stroke:none;stroke-width:1;stroke-linecap:round;stroke-linejoin:round;stroke-opacity:1"
           d="m 116.05642,113.53651 0.49168,0.56808 c 6.95654,-6.18664 13.06869,-13.29549 18.12787,-21.070299 6.13744,-9.383916 10.73489,-19.747501 13.56851,-30.554176 -3.07521,10.740702 -7.89239,20.958948 -14.19265,30.135942 -5.23003,7.579893 -11.46803,14.442833 -18.48709,20.352373 z"
           id="path4828" />
        <path
           id="path4830"
           d="m 116.05642,113.53651 0.41794,0.62433 c 7.63029,-5.25852 14.65456,-11.37023 20.90088,-18.177112 3.89608,-4.314406 7.48033,-8.898331 10.71894,-13.704476 -3.44323,4.66176 -7.2116,9.072255 -11.26556,13.189048 -6.38992,6.59412 -13.5143,12.45623 -21.19014,17.44388 z"
           style="fill:#000000;fill-opacity:1;fill-rule:evenodd;stroke:none;stroke-width:1;stroke-linecap:round;stroke-linejoin:round;stroke-opacity:1" />
        <path
           id="path4832"
           d="m 116.13754,113.49287 0.74361,0.10729 c 1.39786,-10.56486 4.12066,-20.969967 8.09206,-30.89305 3.91681,-9.791173 9.04872,-19.11254 15.24863,-27.681258 -6.40098,8.419427 -11.77101,17.641488 -15.94283,27.393946 -4.22664,9.884918 -7.22149,20.312902 -8.88508,30.965782 z"
           style="fill:#000000;fill-opacity:1;fill-rule:evenodd;stroke:none;stroke-width:1;stroke-linecap:round;stroke-linejoin:round;stroke-opacity:1" />
        <path
           style="fill:#000000;fill-opacity:1;fill-rule:evenodd;stroke:none;stroke-width:1;stroke-linecap:round;stroke-linejoin:round;stroke-opacity:1"
           d="m 116.13754,113.49287 0.75085,-0.0261 c -0.49742,-10.68928 0.63862,-21.472979 3.36784,-31.859519 2.15909,-8.315337 5.33627,-16.381874 9.44555,-23.961185 -4.32763,7.456664 -7.75319,15.454131 -10.16991,23.761789 -2.99082,10.393264 -4.39762,21.260815 -4.14518,32.111195 z"
           id="path4834" />
        <path
           id="path4836"
           d="m 116.13754,113.49287 0.72979,-0.17852 c -2.60642,-10.12792 -3.29655,-20.771454 -2.00537,-31.197239 0.5975,-5.323897 1.7072,-10.602407 3.31337,-15.738453 -1.84336,5.055705 -3.20571,10.299532 -4.05783,15.637231 -1.55197,10.484972 -1.11777,21.284661 1.29025,31.655501 z"
           style="fill:#000000;fill-opacity:1;fill-rule:evenodd;stroke:none;stroke-width:1;stroke-linecap:round;stroke-linejoin:round;stroke-opacity:1" />
        <circle
           r="5.1113367"
           cy="115.97756"
           cx="115.297"
           id="path4840"
           style="opacity:1;fill:#ffffff;fill-opacity:1;fill-rule:evenodd;stroke:#000000;stroke-width:0.84332752;stroke-linecap:round;stroke-linejoin:round;stroke-opacity:1" />
        <g
           transform="translate(-348.57143,-74.285714)"
           id="g5134">
          <path
             style="fill:#ffffff;fill-rule:evenodd;stroke:#000000;stroke-width:1px;stroke-linecap:round;stroke-linejoin:round;stroke-opacity:1"
             d="m 559.55993,139.43539 c 112.69926,-21.7164 298.24782,96.29264 410,0 -93.26554,21.98218 -317.21167,-126.70261 -410,0 z"
             id="path4704" />
          <path
             style="fill:#000000;fill-opacity:1;fill-rule:evenodd;stroke:none;stroke-width:1px;stroke-linecap:round;stroke-linejoin:round;stroke-opacity:1"
             d="m 559.55054,139.45216 c 2.76571,-0.65071 5.30218,-1.49831 7.96694,-2.00956 51.92991,-27.23156 88.52729,-25.05973 122.18499,-17.40108 35.2931,8.03078 67.07059,22.03521 108.87622,14.16688 -41.77893,7.06638 -73.14213,-7.64434 -108.32896,-16.45658 -33.83318,-8.47323 -71.44812,-11.5481 -124.84637,15.59574 -1.99909,1.89637 -3.83055,4.10963 -5.85282,6.1046 z"
             id="path4706" />
        </g>
        <g
           transform="translate(-422.85714,-1.4285714)"
           id="g5130">
          <path
             id="path4952"
             d="m 499.51233,211.60634 c -21.7164,112.69926 96.29264,298.24782 0,410.00001 21.98218,-93.26554 -126.70261,-317.21168 0,-410.00001 z"
             style="fill:#ffffff;fill-opacity:1;fill-rule:evenodd;stroke:#000000;stroke-width:1px;stroke-linecap:round;stroke-linejoin:round;stroke-opacity:1" />
          <path
             id="path4954"
             d="m 499.5291,211.59695 c -0.65071,2.76571 -1.49831,5.30218 -2.00956,7.96694 -27.23156,51.92991 -25.05973,88.52729 -17.40108,122.18499 8.03078,35.2931 22.03521,67.07059 14.16688,108.87622 7.06638,-41.77893 -7.64434,-73.14213 -16.45658,-108.32896 -8.47323,-33.83318 -11.5481,-71.44812 15.59574,-124.84637 1.89637,-1.99908 4.10963,-3.83054 6.1046,-5.85282 z"
             style="fill:#000000;fill-opacity:1;fill-rule:evenodd;stroke:none;stroke-width:1px;stroke-linecap:round;stroke-linejoin:round;stroke-opacity:1" />
        </g>
        <g
           id="g5554">
          <path
             id="path4966"
             d="M 209.89909,64.191826 C 209.07445,31.791209 196.25951,39.172709 185.62712,33.61501 c 3.08487,11.777174 -5.82485,24.782223 24.27197,30.576816 z"
             style="fill:#ffffff;fill-opacity:1;fill-rule:evenodd;stroke:#000000;stroke-width:1;stroke-linecap:round;stroke-linejoin:round;stroke-opacity:1" />
          <path
             id="path4968"
             d="m 209.82475,64.087328 0.20169,-0.128942 c -2.58341,-3.966879 -5.36841,-7.800016 -8.34018,-11.479705 -2.80833,-3.47378 -5.78307,-6.810528 -8.91015,-9.994997 3.06965,3.239867 5.98161,6.626466 8.72265,10.143825 2.90421,3.722919 5.6169,7.592636 8.1243,11.588761 z"
             style="fill:#000000;fill-opacity:1;fill-rule:evenodd;stroke:none;stroke-width:1;stroke-linecap:round;stroke-linejoin:round;stroke-opacity:1" />
          <path
             style="fill:#000000;fill-opacity:1;fill-rule:evenodd;stroke:none;stroke-width:1;stroke-linecap:round;stroke-linejoin:round;stroke-opacity:1"
             d="m 209.82475,64.087328 0.23296,-0.0551 c -0.72149,-2.877157 -1.82796,-5.651818 -3.27782,-8.227287 -1.74532,-3.117312 -3.99444,-5.944134 -6.62883,-8.338117 2.58012,2.452489 4.7558,5.319941 6.41867,8.452721 1.3696,2.594982 2.38807,5.368927 3.02206,8.222877 z"
             id="path4970" />
          <path
             id="path4972"
             d="m 209.82475,64.087328 0.23797,-0.02597 c -0.35999,-2.930581 -1.05032,-5.815818 -2.05173,-8.583845 -0.64401,-1.736658 -1.41013,-3.424988 -2.28999,-5.048466 0.8089,1.65998 1.49889,3.374738 2.06381,5.126846 0.92013,2.777208 1.5252,5.653912 1.80197,8.557411 z"
             style="fill:#000000;fill-opacity:1;fill-rule:evenodd;stroke:none;stroke-width:1;stroke-linecap:round;stroke-linejoin:round;stroke-opacity:1" />
          <path
             id="path4974"
             d="m 209.82439,64.05798 0.13996,-0.194203 c -2.77781,-1.952808 -5.31512,-4.256274 -7.53215,-6.841314 -2.18782,-2.550167 -4.06376,-5.37425 -5.56963,-8.388985 1.43405,3.049511 3.24683,5.926202 5.38611,8.542687 2.16861,2.651502 4.67226,5.035179 7.43575,7.076018 z"
             style="fill:#000000;fill-opacity:1;fill-rule:evenodd;stroke:none;stroke-width:1;stroke-linecap:round;stroke-linejoin:round;stroke-opacity:1" />
          <path
             style="fill:#000000;fill-opacity:1;fill-rule:evenodd;stroke:none;stroke-width:1;stroke-linecap:round;stroke-linejoin:round;stroke-opacity:1"
             d="m 209.82439,64.05798 0.10335,-0.215927 c -3.09245,-1.435851 -5.97069,-3.346982 -8.5018,-5.649522 -2.0302,-1.836073 -3.83999,-3.92301 -5.37471,-6.201358 1.46788,2.321932 3.22153,4.468836 5.21157,6.376544 2.49444,2.377419 5.35642,4.377389 8.45824,5.90619 z"
             id="path4976" />
          <path
             id="path4978"
             d="m 209.82439,64.05798 0.0572,-0.23245 c -3.24491,-0.757399 -6.35286,-2.132074 -9.10712,-4.034239 -1.41558,-0.95387 -2.74281,-2.045715 -3.95658,-3.256771 1.1561,1.266203 2.43628,2.42429 3.8182,3.452111 2.73253,1.98455 5.84684,3.45454 9.1311,4.303799 z"
             style="fill:#000000;fill-opacity:1;fill-rule:evenodd;stroke:none;stroke-width:1;stroke-linecap:round;stroke-linejoin:round;stroke-opacity:1" />
          <path
             style="fill:#ffffff;fill-opacity:1;fill-rule:evenodd;stroke:#000000;stroke-width:1;stroke-linecap:round;stroke-linejoin:round;stroke-opacity:1"
             d="m 209.87367,64.896258 c -31.06964,-9.228062 -28.00945,5.240683 -36.58073,13.635258 12.15404,0.705465 21.76932,13.197893 36.58073,-13.635258 z"
             id="path4982" />
          <path
             style="fill:#000000;fill-opacity:1;fill-rule:evenodd;stroke:none;stroke-width:1;stroke-linecap:round;stroke-linejoin:round;stroke-opacity:1"
             d="m 209.75132,64.934668 -0.0603,-0.231663 c -4.57104,1.231135 -9.07718,2.695328 -13.4951,4.384563 -4.17158,1.597419 -8.26427,3.395458 -12.2592,5.385427 4.02987,-1.918231 8.15057,-3.641157 12.3428,-5.161117 4.43816,-1.61162 8.95675,-2.995739 13.53212,-4.145547 z"
             id="path4984" />
          <path
             id="path4986"
             d="m 209.75132,64.934668 0.0196,-0.238581 c -2.95929,-0.202917 -5.94008,-0.008 -8.83753,0.575021 -3.50407,0.696598 -6.88755,1.962107 -9.97843,3.727771 3.12976,-1.69598 6.52918,-2.879074 10.02249,-3.492475 2.8912,-0.500681 5.84411,-0.612103 8.75429,-0.333155 z"
             style="fill:#000000;fill-opacity:1;fill-rule:evenodd;stroke:none;stroke-width:1;stroke-linecap:round;stroke-linejoin:round;stroke-opacity:1" />
          <path
             style="fill:#000000;fill-opacity:1;fill-rule:evenodd;stroke:none;stroke-width:1;stroke-linecap:round;stroke-linejoin:round;stroke-opacity:1"
             d="m 209.75132,64.934668 0.0488,-0.23435 c -2.89839,-0.563225 -5.85573,-0.798266 -8.79773,-0.70124 -1.85068,0.07584 -3.69312,0.28274 -5.50903,0.617853 1.8287,-0.25635 3.67275,-0.382677 5.51367,-0.378515 2.92562,-0.0169 5.84851,0.296595 8.69543,0.930602 z"
             id="path4988" />
          <path
             style="fill:#000000;fill-opacity:1;fill-rule:evenodd;stroke:none;stroke-width:1;stroke-linecap:round;stroke-linejoin:round;stroke-opacity:1"
             d="m 209.7233,64.925945 -0.14145,-0.193125 c -2.71562,2.038407 -5.69042,3.739717 -8.83404,5.049418 -3.10143,1.292698 -6.36699,2.204134 -9.69951,2.704693 3.3434,-0.42151 6.63947,-1.256617 9.78897,-2.482657 3.19187,-1.243112 6.23256,-2.887627 9.02748,-4.885204 z"
             id="path4990" />
          <path
             id="path4992"
             d="m 209.7233,64.925945 -0.17342,-0.165012 c -2.3212,2.497393 -5.02821,4.644184 -8.00022,6.339892 -2.37358,1.363455 -4.91763,2.439766 -7.55872,3.195322 2.66189,-0.678519 5.24563,-1.682909 7.67492,-2.986032 3.03188,-1.637685 5.81837,-3.741571 8.23086,-6.219158 z"
             style="fill:#000000;fill-opacity:1;fill-rule:evenodd;stroke:none;stroke-width:1;stroke-linecap:round;stroke-linejoin:round;stroke-opacity:1" />
          <path
             style="fill:#000000;fill-opacity:1;fill-rule:evenodd;stroke:none;stroke-width:1;stroke-linecap:round;stroke-linejoin:round;stroke-opacity:1"
             d="m 209.7233,64.925945 -0.2034,-0.126231 c -1.72306,2.852044 -3.99087,5.383082 -6.65105,7.414743 -1.34462,1.05153 -2.79316,1.976396 -4.32002,2.756526 1.56149,-0.70824 3.05849,-1.567886 4.46304,-2.564562 2.73182,-1.985525 5.09224,-4.493159 6.91483,-7.354245 z"
             id="path4994" />
          <path
             id="path4998"
             d="m 210.25846,65.540082 c -18.37746,26.697361 -3.67121,28.258037 1.66383,39.003868 4.42674,-11.341172 19.27904,-16.625476 -1.66383,-39.003868 z"
             style="fill:#ffffff;fill-opacity:1;fill-rule:evenodd;stroke:#000000;stroke-width:1;stroke-linecap:round;stroke-linejoin:round;stroke-opacity:1" />
          <path
             id="path5000"
             d="m 210.25718,65.668318 -0.23896,-0.01423 c -0.24165,4.727762 -0.2416,9.46582 -2.5e-4,14.189515 0.23014,4.461038 0.67547,8.909035 1.33355,13.323373 -0.57905,-4.4254 -0.94429,-8.876825 -1.09439,-13.333571 -0.16127,-4.718955 -0.0813,-9.444104 0.23901,-14.150849 z"
             style="fill:#000000;fill-opacity:1;fill-rule:evenodd;stroke:none;stroke-width:1;stroke-linecap:round;stroke-linejoin:round;stroke-opacity:1" />
          <path
             style="fill:#000000;fill-opacity:1;fill-rule:evenodd;stroke:none;stroke-width:1;stroke-linecap:round;stroke-linejoin:round;stroke-opacity:1"
             d="m 210.25718,65.668318 -0.22085,-0.09235 c -1.10746,2.751748 -1.8432,5.646869 -2.18407,8.58267 -0.42031,3.547832 -0.26229,7.15678 0.46182,10.642006 -0.64583,-3.500664 -0.72053,-7.099308 -0.22442,-10.61119 0.41725,-2.904419 1.22378,-5.747227 2.38837,-8.428778 z"
             id="path5002" />
          <path
             id="path5004"
             d="m 210.25718,65.668318 -0.20779,-0.118863 c -1.43131,2.582489 -2.56872,5.322462 -3.38557,8.150454 -0.49976,1.783528 -0.87233,3.599732 -1.11477,5.430321 0.3213,-1.818413 0.771,-3.611245 1.34383,-5.360781 0.888,-2.787652 2.08937,-5.470607 3.57209,-7.982268 z"
             style="fill:#000000;fill-opacity:1;fill-rule:evenodd;stroke:none;stroke-width:1;stroke-linecap:round;stroke-linejoin:round;stroke-opacity:1" />
          <path
             id="path5006"
             d="m 210.24022,65.692274 -0.22738,0.07484 c 1.09946,3.212614 1.79824,6.567548 2.07241,9.962027 0.27104,3.3491 0.12875,6.736481 -0.42499,10.060578 0.63229,-3.310018 0.85659,-6.702834 0.66381,-10.077054 -0.19593,-3.419788 -0.82034,-6.819831 -1.85647,-10.095241 z"
             style="fill:#000000;fill-opacity:1;fill-rule:evenodd;stroke:none;stroke-width:1;stroke-linecap:round;stroke-linejoin:round;stroke-opacity:1" />
          <path
             style="fill:#000000;fill-opacity:1;fill-rule:evenodd;stroke:none;stroke-width:1;stroke-linecap:round;stroke-linejoin:round;stroke-opacity:1"
             d="m 210.24022,65.692274 -0.21053,0.113944 c 1.65788,2.979322 2.86309,6.217244 3.5574,9.567792 0.56325,2.678734 0.80073,5.430868 0.70316,8.176175 0.17726,-2.741279 0.0205,-5.508931 -0.4682,-8.222013 -0.62063,-3.389567 -1.76048,-6.68981 -3.3713,-9.749842 z"
             id="path5008" />
          <path
             id="path5010"
             d="m 210.24022,65.692274 -0.18291,0.154435 c 2.18,2.520058 3.88638,5.459 4.99656,8.616802 0.58455,1.603753 1.01653,3.267196 1.28665,4.960399 -0.19105,-1.70392 -0.54602,-3.393297 -1.05989,-5.037097 -1.04417,-3.211674 -2.69966,-6.231468 -4.8575,-8.848974 z"
             style="fill:#000000;fill-opacity:1;fill-rule:evenodd;stroke:none;stroke-width:1;stroke-linecap:round;stroke-linejoin:round;stroke-opacity:1" />
          <path
             style="fill:#ffffff;fill-opacity:1;fill-rule:evenodd;stroke:#000000;stroke-width:1;stroke-linecap:round;stroke-linejoin:round;stroke-opacity:1"
             d="m 210.50623,64.825811 c 19.71175,25.727938 25.74052,12.223744 37.60903,10.470458 -9.41816,-7.714695 -9.85422,-23.473003 -37.60903,-10.470458 z"
             id="path5014" />
          <path
             style="fill:#000000;fill-opacity:1;fill-rule:evenodd;stroke:none;stroke-width:1;stroke-linecap:round;stroke-linejoin:round;stroke-opacity:1"
             d="m 210.62779,64.866655 -0.0874,0.222866 c 4.4217,1.690783 8.92787,3.154871 13.49496,4.38504 4.31381,1.159654 8.68172,2.110628 13.08336,2.84887 -4.38774,-0.816816 -8.73416,-1.845022 -13.01916,-3.079482 -4.53783,-1.304855 -9.00701,-2.841039 -13.3844,-4.60016 z"
             id="path5016" />
          <path
             id="path5018"
             d="m 210.62779,64.866655 -0.15608,0.181504 c 2.27484,1.903589 4.80091,3.497964 7.48769,4.72936 3.2443,1.496084 6.72545,2.461029 10.26386,2.849351 -3.5289,-0.467549 -6.9745,-1.508539 -10.1612,-3.065601 -2.63332,-1.29435 -5.08776,-2.93988 -7.27819,-4.876118 z"
             style="fill:#000000;fill-opacity:1;fill-rule:evenodd;stroke:none;stroke-width:1;stroke-linecap:round;stroke-linejoin:round;stroke-opacity:1" />
          <path
             style="fill:#000000;fill-opacity:1;fill-rule:evenodd;stroke:none;stroke-width:1;stroke-linecap:round;stroke-linejoin:round;stroke-opacity:1"
             d="m 210.62779,64.866655 -0.17726,0.160889 c 2.0138,2.15929 4.26819,4.087728 6.70535,5.738497 1.5418,1.026445 3.15398,1.942016 4.82006,2.73827 -1.63013,-0.867492 -3.19625,-1.849196 -4.68314,-2.93463 -2.37681,-1.705966 -4.55721,-3.677615 -6.48775,-5.863915 z"
             id="path5020" />
          <path
             style="fill:#000000;fill-opacity:1;fill-rule:evenodd;stroke:none;stroke-width:1;stroke-linecap:round;stroke-linejoin:round;stroke-opacity:1"
             d="m 210.64534,64.890185 9.2e-4,0.239382 c 3.39513,-0.0529 6.80179,0.319249 10.11486,1.107451 3.26893,0.777158 6.44655,1.959239 9.43684,3.513087 -2.95262,-1.624195 -6.11007,-2.885964 -9.37872,-3.745305 -3.31295,-0.870433 -6.73954,-1.32726 -10.17482,-1.353997 z"
             id="path5022" />
          <path
             id="path5024"
             d="m 210.64534,64.890185 0.0433,0.235433 c 3.34582,-0.65607 6.79769,-0.801717 10.1988,-0.426672 2.72168,0.292093 5.4125,0.916695 7.99329,1.857832 -2.55233,-1.015685 -5.23298,-1.721797 -7.96427,-2.095452 -3.41546,-0.457182 -6.90641,-0.392958 -10.31444,0.193426 z"
             style="fill:#000000;fill-opacity:1;fill-rule:evenodd;stroke:none;stroke-width:1;stroke-linecap:round;stroke-linejoin:round;stroke-opacity:1" />
          <path
             style="fill:#000000;fill-opacity:1;fill-rule:evenodd;stroke:none;stroke-width:1;stroke-linecap:round;stroke-linejoin:round;stroke-opacity:1"
             d="m 210.64534,64.890185 0.0904,0.221677 c 3.07038,-1.294563 6.39277,-2.009235 9.73909,-2.089267 1.70589,-0.06036 3.42141,0.04284 5.11521,0.309169 -1.67956,-0.344841 -3.39595,-0.529287 -5.11809,-0.548535 -3.37714,6.01e-4 -6.76071,0.6419 -9.91691,1.885279 z"
             id="path5026" />
          <path
             id="path5030"
             d="m 210.49618,64.146644 c 30.55999,-10.796621 19.57973,-20.703348 21.57983,-32.53277 -10.24749,6.573229 -25.36928,2.118363 -21.57983,32.53277 z"
             style="fill:#ffffff;fill-opacity:1;fill-rule:evenodd;stroke:#000000;stroke-width:1;stroke-linecap:round;stroke-linejoin:round;stroke-opacity:1" />
          <path
             id="path5032"
             d="m 210.57259,64.043651 0.18496,0.151973 c 2.9744,-3.682801 5.75932,-7.516003 8.34058,-11.479412 2.43594,-3.744332 4.69013,-7.604595 6.75242,-11.562675 -2.13272,3.92058 -4.45372,7.736539 -6.9519,11.430347 -2.64326,3.91251 -5.48531,7.688246 -8.51102,11.307794 z"
             style="fill:#000000;fill-opacity:1;fill-rule:evenodd;stroke:none;stroke-width:1;stroke-linecap:round;stroke-linejoin:round;stroke-opacity:1" />
          <path
             style="fill:#000000;fill-opacity:1;fill-rule:evenodd;stroke:none;stroke-width:1;stroke-linecap:round;stroke-linejoin:round;stroke-opacity:1"
             d="m 210.57259,64.043651 0.12439,0.204529 c 2.51338,-1.575265 4.81032,-3.485008 6.81171,-5.659765 2.4254,-2.623202 4.41885,-5.635782 5.8816,-8.88101 -1.53516,3.211703 -3.58995,6.166979 -6.05554,8.716544 -2.04474,2.104467 -4.3682,3.930282 -6.88655,5.415173 z"
             id="path5034" />
          <path
             id="path5036"
             d="m 210.57259,64.043651 0.0982,0.218297 c 2.6759,-1.247974 5.2066,-2.796107 7.5297,-4.603867 1.45265,-1.149151 2.8216,-2.3995 4.09373,-3.737977 -1.32877,1.282273 -2.74639,2.468379 -4.23817,3.547079 -2.35694,1.733307 -4.90587,3.197716 -7.58174,4.358171 z"
             style="fill:#000000;fill-opacity:1;fill-rule:evenodd;stroke:none;stroke-width:1;stroke-linecap:round;stroke-linejoin:round;stroke-opacity:1" />
          <path
             id="path5038"
             d="m 210.60039,64.034236 0.22795,0.0731 c 0.99883,-3.24531 2.40549,-6.37024 4.17891,-9.277582 1.74927,-2.868791 3.85544,-5.525607 6.25729,-7.889372 -2.45712,2.306208 -4.63283,4.919209 -6.46019,7.762328 -1.85158,2.88183 -3.34492,5.999539 -4.43191,9.258424 z"
             style="fill:#000000;fill-opacity:1;fill-rule:evenodd;stroke:none;stroke-width:1;stroke-linecap:round;stroke-linejoin:round;stroke-opacity:1" />
          <path
             style="fill:#000000;fill-opacity:1;fill-rule:evenodd;stroke:none;stroke-width:1;stroke-linecap:round;stroke-linejoin:round;stroke-opacity:1"
             d="m 210.60039,64.034236 0.23729,0.03156 c 0.40996,-3.384797 1.33812,-6.712732 2.74581,-9.831489 1.11884,-2.498211 2.54439,-4.86432 4.23697,-7.027972 -1.75469,2.113551 -3.25461,4.444802 -4.45399,6.926952 -1.49024,3.107012 -2.50792,6.446948 -3.00337,9.869385 z"
             id="path5040" />
          <path
             id="path5042"
             d="m 210.60039,64.034236 0.23875,-0.01743 c -0.2824,-3.320142 0.0646,-6.700775 1.02253,-9.90804 0.46975,-1.641055 1.09802,-3.240718 1.87472,-4.769322 -0.84697,1.490797 -1.55278,3.06618 -2.10326,4.698084 -1.04302,3.212046 -1.47869,6.628184 -1.27149,10.01414 z"
             style="fill:#000000;fill-opacity:1;fill-rule:evenodd;stroke:none;stroke-width:1;stroke-linecap:round;stroke-linejoin:round;stroke-opacity:1" />
          <circle
             r="1.6285881"
             cy="28.921429"
             cx="218.04761"
             id="circle5044"
             style="opacity:1;fill:#ffffff;fill-opacity:1;fill-rule:evenodd;stroke:#000000;stroke-width:0.26870334;stroke-linecap:round;stroke-linejoin:round;stroke-opacity:1"
             transform="rotate(9.570132)" />
        </g>
        <path
           id="path5050"
           d="m 73.127245,211.79296 c -6.199919,-31.81259 -17.609307,-22.40327 -29.017713,-26.11594 4.999945,11.1004 -1.623626,25.40573 29.017713,26.11594 z"
           style="fill:#ffffff;fill-opacity:1;fill-rule:evenodd;stroke:#000000;stroke-width:1;stroke-linecap:round;stroke-linejoin:round;stroke-opacity:1" />
        <path
           id="path5052"
           d="m 73.036566,211.70228 0.177445,-0.16068 c -3.206968,-3.48217 -6.59049,-6.79894 -10.132669,-9.93334 -3.346773,-2.95854 -6.834868,-5.75429 -10.447856,-8.37455 3.565567,2.68444 7.000043,5.53978 10.287714,8.55247 3.482741,3.18827 6.801043,6.55314 9.937921,10.07678 z"
           style="fill:#000000;fill-opacity:1;fill-rule:evenodd;stroke:none;stroke-width:1;stroke-linecap:round;stroke-linejoin:round;stroke-opacity:1" />
        <path
           style="fill:#000000;fill-opacity:1;fill-rule:evenodd;stroke:none;stroke-width:1;stroke-linecap:round;stroke-linejoin:round;stroke-opacity:1"
           d="m 73.036566,211.70228 0.220555,-0.0931 c -1.189786,-2.71717 -2.742168,-5.26925 -4.600029,-7.56784 -2.239299,-2.78375 -4.927094,-5.1973 -7.922825,-7.11999 2.951952,1.9894 5.57407,4.45523 7.734637,7.26795 1.781974,2.33116 3.247447,4.89717 4.347107,7.606 z"
           id="path5054" />
        <path
           id="path5056"
           d="m 73.036566,211.70228 0.230341,-0.0652 c -0.842207,-2.82994 -2.002617,-5.56025 -3.450283,-8.12327 -0.923779,-1.60542 -1.959933,-3.14288 -3.097457,-4.59748 1.073624,1.50239 2.039095,3.07857 2.887447,4.71238 1.369055,2.58558 2.443973,5.32165 3.199611,8.13873 z"
           style="fill:#000000;fill-opacity:1;fill-rule:evenodd;stroke:none;stroke-width:1;stroke-linecap:round;stroke-linejoin:round;stroke-opacity:1" />
        <path
           id="path5058"
           d="m 73.031328,211.6734 0.105728,-0.21477 c -3.063818,-1.46381 -5.948772,-3.31338 -8.564724,-5.49385 -2.581353,-2.15094 -4.900703,-4.62383 -6.886825,-7.34625 1.921085,2.76865 4.186898,5.30392 6.731411,7.52833 2.579255,2.25406 5.444357,4.18832 8.508682,5.74131 z"
           style="fill:#000000;fill-opacity:1;fill-rule:evenodd;stroke:none;stroke-width:1;stroke-linecap:round;stroke-linejoin:round;stroke-opacity:1" />
        <path
           style="fill:#000000;fill-opacity:1;fill-rule:evenodd;stroke:none;stroke-width:1;stroke-linecap:round;stroke-linejoin:round;stroke-opacity:1"
           d="m 73.031328,211.6734 0.06601,-0.2301 c -3.288129,-0.90173 -6.444041,-2.30775 -9.322737,-4.15744 -2.307199,-1.47299 -4.438762,-3.22999 -6.330908,-5.22148 1.833481,2.04558 3.919659,3.87105 6.199164,5.42136 2.854977,1.92962 6.009637,3.42593 9.322465,4.41776 z"
           id="path5060" />
        <path
           id="path5062"
           d="m 73.031328,211.6734 0.01776,-0.23872 c -3.325672,-0.20738 -6.618914,-1.04621 -9.651092,-2.46399 -1.554461,-0.70525 -3.044738,-1.56124 -4.442962,-2.55365 1.350524,1.05637 2.805416,1.98551 4.33899,2.76927 3.024436,1.50264 6.339798,2.4344 9.719548,2.72581 z"
           style="fill:#000000;fill-opacity:1;fill-rule:evenodd;stroke:none;stroke-width:1;stroke-linecap:round;stroke-linejoin:round;stroke-opacity:1" />
        <path
           style="fill:#ffffff;fill-opacity:1;fill-rule:evenodd;stroke:#000000;stroke-width:1;stroke-linecap:round;stroke-linejoin:round;stroke-opacity:1"
           d="m 73.21929,212.49181 c -32.171453,-3.93416 -26.748357,9.82445 -33.804705,19.52721 12.102172,-1.32502 23.660562,9.39497 33.804705,-19.52721 z"
           id="path5066" />
        <path
           style="fill:#000000;fill-opacity:1;fill-rule:evenodd;stroke:none;stroke-width:1;stroke-linecap:round;stroke-linejoin:round;stroke-opacity:1"
           d="m 73.105024,212.55003 -0.09798,-0.21841 c -4.302747,1.97395 -8.502749,4.16693 -12.578341,6.56716 -3.847946,2.26873 -7.584738,4.72217 -11.193226,7.34863 3.654869,-2.56152 7.431769,-4.94556 11.31296,-7.14135 4.108449,-2.32705 8.334036,-4.44314 12.654569,-6.33762 z"
           id="path5068" />
        <path
           id="path5070"
           d="m 73.105024,212.55003 -0.02035,-0.23852 c -2.951841,0.2919 -5.858734,0.97966 -8.618925,2.03629 -3.339495,1.26947 -6.465494,3.07989 -9.21981,5.33486 2.804235,-2.19272 5.959658,-3.92452 9.302366,-5.11016 2.767728,-0.97439 5.661011,-1.57519 8.577071,-1.78395 z"
           style="fill:#000000;fill-opacity:1;fill-rule:evenodd;stroke:none;stroke-width:1;stroke-linecap:round;stroke-linejoin:round;stroke-opacity:1" />
        <path
           style="fill:#000000;fill-opacity:1;fill-rule:evenodd;stroke:none;stroke-width:1;stroke-linecap:round;stroke-linejoin:round;stroke-opacity:1"
           d="m 73.105024,212.55003 0.0092,-0.23921 c -2.951694,-0.0735 -5.906961,0.18639 -8.791887,0.77118 -1.812308,0.38247 -3.59471,0.89281 -5.329634,1.52516 1.76063,-0.55681 3.558013,-0.98796 5.374008,-1.28992 2.882094,-0.50306 5.816421,-0.67988 8.729125,-0.528 z"
           id="path5072" />
        <path
           style="fill:#000000;fill-opacity:1;fill-rule:evenodd;stroke:none;stroke-width:1;stroke-linecap:round;stroke-linejoin:round;stroke-opacity:1"
           d="m 73.07594,212.54608 -0.171587,-0.16692 c -2.338934,2.46152 -4.989479,4.63373 -7.871603,6.44784 -2.843349,1.79034 -5.911931,3.23201 -9.114853,4.27965 3.226794,-0.9715 6.338157,-2.34298 9.239989,-4.07557 2.940771,-1.75648 5.665727,-3.88363 8.089641,-6.31808 z"
           id="path5074" />
        <path
           id="path5076"
           d="m 73.07594,212.54608 -0.198444,-0.13388 c -1.873686,2.84854 -4.186115,5.41551 -6.834838,7.58173 -2.11386,1.7391 -4.443563,3.22339 -6.922284,4.40753 2.512035,-1.11163 4.892828,-2.5316 7.071662,-4.22047 2.717415,-2.11896 5.115341,-4.65683 7.082348,-7.50103 z"
           style="fill:#000000;fill-opacity:1;fill-rule:evenodd;stroke:none;stroke-width:1;stroke-linecap:round;stroke-linejoin:round;stroke-opacity:1" />
        <path
           style="fill:#000000;fill-opacity:1;fill-rule:evenodd;stroke:none;stroke-width:1;stroke-linecap:round;stroke-linejoin:round;stroke-opacity:1"
           d="m 73.07594,212.54608 -0.221553,-0.0907 c -1.224915,3.09882 -3.040359,5.97167 -5.325747,8.41732 -1.151086,1.26045 -2.425704,2.41327 -3.801614,3.43639 1.422007,-0.95799 2.755253,-2.05455 3.974558,-3.27087 2.363695,-2.41207 4.274358,-5.27724 5.595909,-8.40152 z"
           id="path5078" />
        <path
           id="path5082"
           d="m 73.705764,213.0627 c -13.683132,29.38115 1.077914,28.47512 8.125257,38.18442 2.479608,-11.9193 16.246657,-19.59932 -8.125257,-38.18442 z"
           style="fill:#ffffff;fill-opacity:1;fill-rule:evenodd;stroke:#000000;stroke-width:1;stroke-linecap:round;stroke-linejoin:round;stroke-opacity:1" />
        <path
           id="path5084"
           d="m 73.725823,213.18936 -0.238001,0.0257 c 0.547724,4.70214 1.335503,9.37425 2.358827,13.99208 0.968612,4.36069 2.147242,8.67274 3.530061,12.91624 -1.306733,-4.26754 -2.406956,-8.59629 -3.295919,-12.96606 -0.94358,-4.62647 -1.650326,-9.29915 -2.116967,-13.99364 z"
           style="fill:#000000;fill-opacity:1;fill-rule:evenodd;stroke:none;stroke-width:1;stroke-linecap:round;stroke-linejoin:round;stroke-opacity:1" />
        <path
           style="fill:#000000;fill-opacity:1;fill-rule:evenodd;stroke:none;stroke-width:1;stroke-linecap:round;stroke-linejoin:round;stroke-opacity:1"
           d="m 73.725823,213.18936 -0.233132,-0.0543 c -0.634552,2.89757 -0.878729,5.87472 -0.726761,8.82634 0.17538,3.56833 0.931202,7.10079 2.22467,10.41712 -1.218838,-3.34457 -1.890798,-6.88071 -1.985458,-10.4262 -0.07142,-2.93337 0.251249,-5.87071 0.953813,-8.70856 z"
           id="path5086" />
        <path
           id="path5088"
           d="m 73.725823,213.18936 -0.224659,-0.0827 c -0.98204,2.78451 -1.648086,5.67545 -1.983402,8.59988 -0.196289,1.8418 -0.26172,3.69467 -0.196438,5.54009 0.0145,-1.84652 0.159878,-3.68917 0.433872,-5.50959 0.412177,-2.89649 1.150773,-5.74184 2.195286,-8.46506 z"
           style="fill:#000000;fill-opacity:1;fill-rule:evenodd;stroke:none;stroke-width:1;stroke-linecap:round;stroke-linejoin:round;stroke-opacity:1" />
        <path
           id="path5090"
           d="m 73.713085,213.2158 -0.211775,0.11161 c 1.618279,2.98511 2.865106,6.17718 3.699806,9.47884 0.824068,3.25743 1.24693,6.62132 1.253537,9.99122 0.07318,-3.36907 -0.269701,-6.75197 -1.020783,-10.04718 -0.761759,-3.33962 -1.942746,-6.58853 -3.50901,-9.6461 z"
           style="fill:#000000;fill-opacity:1;fill-rule:evenodd;stroke:none;stroke-width:1;stroke-linecap:round;stroke-linejoin:round;stroke-opacity:1" />
        <path
           style="fill:#000000;fill-opacity:1;fill-rule:evenodd;stroke:none;stroke-width:1;stroke-linecap:round;stroke-linejoin:round;stroke-opacity:1"
           d="m 73.713085,213.2158 -0.188653,0.14736 c 2.130127,2.66223 3.85688,5.65472 5.098575,8.8432 1.000762,2.54781 1.69249,5.22217 2.052702,7.94549 -0.280958,-2.7326 -0.895726,-5.43567 -1.828638,-8.02975 -1.175521,-3.23921 -2.848182,-6.30402 -4.945333,-9.05366 z"
           id="path5092" />
        <path
           id="path5094"
           d="m 73.713085,213.2158 -0.154685,0.18269 c 2.568633,2.12256 4.73987,4.7369 6.359601,7.66619 0.84305,1.48424 1.545569,3.05272 2.093434,4.67745 -0.471675,-1.64844 -1.102575,-3.25529 -1.882578,-4.79079 -1.563591,-2.99337 -3.698099,-5.69591 -6.261087,-7.91823 z"
           style="fill:#000000;fill-opacity:1;fill-rule:evenodd;stroke:none;stroke-width:1;stroke-linecap:round;stroke-linejoin:round;stroke-opacity:1" />
        <path
           style="fill:#ffffff;fill-opacity:1;fill-rule:evenodd;stroke:#000000;stroke-width:1;stroke-linecap:round;stroke-linejoin:round;stroke-opacity:1"
           d="m 73.831315,212.31719 c 23.714813,22.0927 27.414545,7.77414 38.826385,4.07206 -10.56969,-6.04152 -13.619571,-21.50802 -38.826385,-4.07206 z"
           id="path5098" />
        <path
           style="fill:#000000;fill-opacity:1;fill-rule:evenodd;stroke:none;stroke-width:1;stroke-linecap:round;stroke-linejoin:round;stroke-opacity:1"
           d="m 73.957978,212.33725 -0.04911,0.23429 c 4.641258,0.93213 9.328134,1.62667 14.036176,2.08042 4.446581,0.42632 8.911808,0.63788 13.374928,0.63405 -4.462477,-0.076 -8.919354,-0.36725 -13.349954,-0.87213 -4.691615,-0.53226 -9.353994,-1.30404 -13.962926,-2.31092 z"
           id="path5100" />
        <path
           id="path5102"
           d="m 73.957978,212.33725 -0.123732,0.20493 c 2.559666,1.49889 5.315649,2.65111 8.169762,3.41867 3.447883,0.93589 7.041006,1.30865 10.594731,1.10329 -3.55752,0.12565 -7.128237,-0.32801 -10.529447,-1.33359 -2.81187,-0.83854 -5.505729,-2.05311 -7.987582,-3.59823 z"
           style="fill:#000000;fill-opacity:1;fill-rule:evenodd;stroke:none;stroke-width:1;stroke-linecap:round;stroke-linejoin:round;stroke-opacity:1" />
        <path
           style="fill:#000000;fill-opacity:1;fill-rule:evenodd;stroke:none;stroke-width:1;stroke-linecap:round;stroke-linejoin:round;stroke-opacity:1"
           d="m 73.957978,212.33725 -0.148041,0.18812 c 2.344757,1.79444 4.888387,3.32124 7.566078,4.54385 1.690994,0.75582 3.432957,1.39062 5.208228,1.89879 -1.751666,-0.5844 -3.459203,-1.29206 -5.10586,-2.11519 -2.627357,-1.28706 -5.105207,-2.86877 -7.372364,-4.70369 z"
           id="path5104" />
        <path
           style="fill:#000000;fill-opacity:1;fill-rule:evenodd;stroke:none;stroke-width:1;stroke-linecap:round;stroke-linejoin:round;stroke-opacity:1"
           d="m 73.97919,212.35754 0.0407,0.2359 c 3.339084,-0.61663 6.760212,-0.81603 10.15821,-0.5896 3.35265,0.22286 6.682575,0.8602 9.88958,1.89527 -3.181563,-1.1107 -6.504841,-1.82997 -9.870868,-2.13393 -3.411563,-0.30752 -6.866409,-0.1883 -10.258328,0.35646 z"
           id="path5106" />
        <path
           id="path5108"
           d="m 73.97919,212.35754 0.08185,0.22496 c 3.190176,-1.2032 6.569797,-1.92071 9.98593,-2.11634 2.732365,-0.16447 5.489579,0.004 8.190923,0.50305 -2.685677,-0.57721 -5.446416,-0.82783 -8.201821,-0.74219 -3.443929,0.11702 -6.875615,0.76074 -10.138732,1.90556 z"
           style="fill:#000000;fill-opacity:1;fill-rule:evenodd;stroke:none;stroke-width:1;stroke-linecap:round;stroke-linejoin:round;stroke-opacity:1" />
        <path
           style="fill:#000000;fill-opacity:1;fill-rule:evenodd;stroke:none;stroke-width:1;stroke-linecap:round;stroke-linejoin:round;stroke-opacity:1"
           d="m 73.97919,212.35754 0.125952,0.20357 c 2.812416,-1.78701 5.969758,-3.0441 9.256195,-3.67936 1.672121,-0.34313 3.38092,-0.52658 5.095429,-0.54556 -1.713518,-0.0608 -3.436682,0.0427 -5.138055,0.31 -3.330049,0.56206 -6.559911,1.75697 -9.465473,3.50778 z"
           id="path5110" />
        <path
           id="path5114"
           d="m 73.708498,211.64913 c 28.339692,-15.7271 15.865206,-23.67043 15.870772,-35.66775 -9.012036,8.18544 -24.664018,6.30664 -15.870772,35.66775 z"
           style="fill:#ffffff;fill-opacity:1;fill-rule:evenodd;stroke:#000000;stroke-width:1;stroke-linecap:round;stroke-linejoin:round;stroke-opacity:1" />
        <path
           id="path5116"
           d="m 73.766721,211.53487 0.207649,0.11911 c 2.32073,-4.12606 4.4296,-8.36892 6.316007,-12.70632 1.779525,-4.09721 3.360555,-8.27851 4.736096,-12.52437 -1.451229,4.22059 -3.105506,8.36932 -4.954804,12.42705 -1.955997,4.29751 -4.130761,8.49321 -6.512597,12.56542 z"
           style="fill:#000000;fill-opacity:1;fill-rule:evenodd;stroke:none;stroke-width:1;stroke-linecap:round;stroke-linejoin:round;stroke-opacity:1" />
        <path
           style="fill:#000000;fill-opacity:1;fill-rule:evenodd;stroke:none;stroke-width:1;stroke-linecap:round;stroke-linejoin:round;stroke-opacity:1"
           d="m 73.766721,211.53487 0.156661,0.181 c 2.216513,-1.9712 4.163981,-4.23624 5.775952,-6.71347 1.955531,-2.98993 3.420381,-6.29201 4.323234,-9.73526 -0.979829,3.42223 -2.514693,6.678 -4.522098,9.602 -1.666408,2.41513 -3.653978,4.60182 -5.89041,6.48473 z"
           id="path5118" />
        <path
           id="path5120"
           d="m 73.766721,211.53487 0.133165,0.19893 c 2.431181,-1.67549 4.669275,-3.62282 6.659494,-5.79165 1.241381,-1.37466 2.383405,-2.8352 3.415301,-4.36655 -1.097094,1.48534 -2.297784,2.89062 -3.589467,4.20233 -2.035973,2.10103 -4.305964,3.96883 -6.751658,5.55801 z"
           style="fill:#000000;fill-opacity:1;fill-rule:evenodd;stroke:none;stroke-width:1;stroke-linecap:round;stroke-linejoin:round;stroke-opacity:1" />
        <path
           id="path5122"
           d="m 73.792569,211.52096 0.23693,0.0342 c 0.445391,-3.36621 1.312936,-6.68151 2.578313,-9.84323 1.247984,-3.11969 2.883129,-6.08969 4.85856,-8.81988 -2.039498,2.68262 -3.750511,5.62098 -5.079748,8.72834 -1.346703,3.14956 -2.300928,6.47215 -2.830985,9.86639 z"
           style="fill:#000000;fill-opacity:1;fill-rule:evenodd;stroke:none;stroke-width:1;stroke-linecap:round;stroke-linejoin:round;stroke-opacity:1" />
        <path
           style="fill:#000000;fill-opacity:1;fill-rule:evenodd;stroke:none;stroke-width:1;stroke-linecap:round;stroke-linejoin:round;stroke-opacity:1"
           d="m 73.792569,211.52096 0.239239,-0.008 c -0.15849,-3.40584 0.203478,-6.84178 1.073069,-10.15116 0.687932,-2.64946 1.700257,-5.21964 3.009567,-7.63458 -1.378881,2.37586 -2.470345,4.92404 -3.240367,7.57104 -0.952943,3.31153 -1.401181,6.77418 -1.320747,10.23136 z"
           id="path5124" />
        <path
           id="path5126"
           d="m 73.792569,211.52096 0.232528,-0.0569 c -0.830464,-3.22698 -1.050356,-6.61825 -0.638957,-9.94014 0.190377,-1.69632 0.543953,-3.37817 1.055713,-5.01463 -0.587337,1.61086 -1.021411,3.28166 -1.292915,4.98237 -0.494491,3.34075 -0.356147,6.78178 0.411103,10.08616 z"
           style="fill:#000000;fill-opacity:1;fill-rule:evenodd;stroke:none;stroke-width:1;stroke-linecap:round;stroke-linejoin:round;stroke-opacity:1" />
        <circle
           r="1.6285881"
           cy="212.31265"
           cx="73.524757"
           id="circle5128"
           style="opacity:1;fill:#ffffff;fill-opacity:1;fill-rule:evenodd;stroke:#000000;stroke-width:0.26870334;stroke-linecap:round;stroke-linejoin:round;stroke-opacity:1" />
      </g>
    </g>
  </g>
</svg>
